<svg width="192" height="192" viewBox="0 0 192 192" fill="none" xmlns="http://www.w3.org/2000/svg">
    <path fill-rule="evenodd" clip-rule="evenodd" d="M96 184C144.601 184 184 144.601 184 96C184 47.3989 144.601 8 96 8C47.3989 8 8 47.3989 8 96C8 144.601 47.3989 184 96 184ZM96 192C149.019 192 192 149.019 192 96C192 42.9807 149.019 0 96 0C42.9807 0 0 42.9807 0 96C0 149.019 42.9807 192 96 192Z" fill="#25CBCB"/>
	<path fill-rule="evenodd" clip-rule="evenodd" d="M96 176C140.183 176 176 140.183 176 96C176 51.8172 140.183 16 96 16C51.8172 16 16 51.8172 16 96C16 140.183 51.8172 176 96 176ZM96 180C142.392 180 180 142.392 180 96C180 49.6081 142.392 12 96 12C49.6081 12 12 49.6081 12 96C12 142.392 49.6081 180 96 180Z" fill="#25CBCB"/>
	<path fill-rule="evenodd" clip-rule="evenodd" d="M143.863 80.1534L134.609 71.0931L132.743 72.3171C130.823 73.519 128.553 74.0387 126.301 73.7922C124.049 73.5457 121.946 72.5474 120.331 70.9584C118.716 69.3694 117.684 67.2826 117.401 65.0348C117.118 62.787 117.601 60.5095 118.772 58.57L119.951 56.6743L110.697 47.5992C109.623 46.5582 108.181 45.9836 106.686 46.0004C105.19 46.0171 103.762 46.6239 102.711 47.6887L47.6483 103.871C46.5928 104.929 46 106.362 46 107.857C46 109.351 46.5928 110.784 47.6483 111.842L57.007 121.007L58.7833 120.096C60.6632 119.116 62.8045 118.753 64.9024 119.061C67.0002 119.368 68.9476 120.329 70.4674 121.808C71.9871 123.286 73.0017 125.206 73.3668 127.295C73.7318 129.383 73.4287 131.534 72.5005 133.44L71.6348 135.246L80.9935 144.396C82.0631 145.44 83.5031 146.016 84.9974 146C86.4917 145.983 87.9183 145.374 88.9642 144.306L143.967 88.1389C145.01 87.0648 145.585 85.6213 145.565 84.1245C145.545 82.6278 144.933 81.1998 143.863 80.1534ZM141.097 85.3528C141.099 85.3511 141.101 85.3495 141.102 85.3479C141.405 85.0337 141.571 84.613 141.565 84.1769C141.56 83.7385 141.38 83.3202 141.067 83.0136L143.863 80.1534L141.065 83.0116L134.074 76.1677C131.57 77.5172 128.708 78.0796 125.866 77.7685C122.72 77.4241 119.781 76.0294 117.525 73.8096C115.269 71.5898 113.827 68.6744 113.432 65.5342C113.076 62.7031 113.589 59.8382 114.893 57.3161L107.913 50.4714C107.911 50.4695 107.909 50.4676 107.907 50.4657C107.591 50.1624 107.169 49.9952 106.73 50.0001C106.291 50.005 105.871 50.1827 105.562 50.4946C105.561 50.4956 105.56 50.4967 105.559 50.4978L50.4924 106.684L50.4797 106.697C50.1725 107.004 50 107.422 50 107.857C50 108.286 50.1683 108.698 50.4683 109.005L57.7647 116.15C60.1818 115.085 62.8563 114.718 65.4821 115.103C68.4128 115.532 71.1334 116.875 73.2565 118.941C75.3797 121.006 76.7971 123.688 77.307 126.606C77.7654 129.229 77.4696 131.921 76.4635 134.373L83.7871 141.533C84.0984 141.837 84.5175 142.005 84.9524 142C85.3874 141.995 85.8026 141.818 86.107 141.507L141.097 85.3528Z" fill="#25CBCB"/>
</svg>